<?xml version="1.0" encoding="UTF-8"?>
<svg width="256" height="256" viewBox="0 0 256 256" xmlns="http://www.w3.org/2000/svg">
    <!-- 背景圆 -->
    <circle cx="128" cy="128" r="120" fill="#2196F3"/>
    
    <!-- DNS 文字效果 -->
    <path d="M78 88h30c16 0 24 8 24 24v32c0 16-8 24-24 24H78V88zm20 20v40h8c4 0 6-2 6-6v-28c0-4-2-6-6-6h-8z" fill="white"/>
    <path d="M148 88h30c16 0 24 8 24 24v32c0 16-8 24-24 24h-30V88zm20 20v40h8c4 0 6-2 6-6v-28c0-4-2-6-6-6h-8z" fill="white"/>
    
    <!-- 连接线条 -->
    <path d="M68 128h120" stroke="white" stroke-width="4" stroke-dasharray="8,4"/>
    
    <!-- 箭头装饰 -->
    <path d="M188 108l20 20-20 20" stroke="white" stroke-width="4" fill="none"/>
</svg> 
